<?xml version="1.0" encoding="utf-8"?>
<!-- Generator: Adobe Illustrator 23.1.1, SVG Export Plug-In . SVG Version: 6.00 Build 0)  -->
<svg version="1.1" id="Capa_1" xmlns="http://www.w3.org/2000/svg" xmlns:xlink="http://www.w3.org/1999/xlink" x="0px" y="0px"
	 viewBox="0 0 100 125" style="enable-background:new 0 0 100 125;" xml:space="preserve">
<style type="text/css">
	.st0{fill:#FFFFFF;}
	.st1{fill:#5C0002;}
</style>
<rect x="28.3" y="35.3" class="st0" width="43.4" height="45"/>
<g>
	<path class="st1" d="M50,17.5c-21,0-38,17-38,38c0,11.9,6.4,21.5,14,29.5c5.5,5.8,24,22.5,24,22.5s20-18.1,21.8-19.9
		c8.4-8.4,16.2-19.2,16.2-32C88,34.5,71,17.5,50,17.5z M65.2,57.4v19.1H53.5V62.4h-7v14.1H34.8V57.4h-4.8l20-20.7l7.2,7.4v-3.8h5.6
		V50l7.2,7.4C70.1,57.4,65.2,57.4,65.2,57.4z"/>
</g>
</svg>
