<?xml version="1.0" encoding="utf-8"?>
<!-- Generator: Adobe Illustrator 23.1.1, SVG Export Plug-In . SVG Version: 6.00 Build 0)  -->
<svg version="1.1" id="Capa_1" xmlns="http://www.w3.org/2000/svg" xmlns:xlink="http://www.w3.org/1999/xlink" x="0px" y="0px"
	 viewBox="0 0 64 64" style="enable-background:new 0 0 64 64;" xml:space="preserve">
<style type="text/css">
	.st0{fill:#FFFFFF;}
	.st1{opacity:0.65;}
	.st2{fill:#5C0002;stroke:#FFFFFF;stroke-miterlimit:10;}
</style>
<rect x="16.6" y="13.5" class="st0" width="30.1" height="31.5"/>
<g class="st1">
	<image style="overflow:visible;" width="125" height="90" xlink:href="C2BD5F61B699231B.png"  transform="matrix(1 0 0 1 -31 9)">
	</image>
</g>
<g>
	<path class="st2" d="M31.7,0.5C17.1,0.5,5.3,12.4,5.3,27c0,8.3,4.4,15,9.7,20.6c3.8,4,16.6,15.7,16.6,15.7s13.9-12.6,15.1-13.9
		C52.6,43.6,58,36,58,27.1C58,12.4,46.2,0.5,31.7,0.5z M42.2,28.3v13.3h-8.1v-9.8h-4.9v9.8h-8.1V28.3h-3.3l13.9-14.4l5,5.2v-2.6h3.9
		v6.8l5,5.2C45.6,28.3,42.2,28.3,42.2,28.3z"/>
</g>
</svg>
