<?xml version="1.0" encoding="utf-8"?>
<!-- Generator: Adobe Illustrator 23.1.1, SVG Export Plug-In . SVG Version: 6.00 Build 0)  -->
<svg version="1.1" id="Capa_1" xmlns="http://www.w3.org/2000/svg" xmlns:xlink="http://www.w3.org/1999/xlink" x="0px" y="0px"
	 viewBox="0 0 50 50" style="enable-background:new 0 0 50 50;" xml:space="preserve">
<style type="text/css">
	.st0{fill:#FFFFFF;}
	.st1{fill:#5C0002;}
</style>
<rect x="13.43" y="10.08" class="st0" width="23.68" height="24.88"/>
<g>
	<path class="st1" d="M25.27,0.24c-11.46,0-20.73,9.4-20.73,21.01c0,6.58,3.49,11.89,7.64,16.31C15.18,40.77,25.27,50,25.27,50
		s10.91-10.01,11.89-11C41.74,34.35,46,28.38,46,21.3C46,9.64,36.73,0.24,25.27,0.24z M33.56,22.3v10.56h-6.38v-7.8h-3.82v7.8h-6.38
		V22.3h-2.62l10.91-11.45l3.93,4.09v-2.1h3.06v5.36l3.93,4.09C36.23,22.3,33.56,22.3,33.56,22.3z"/>
</g>
</svg>
