<?xml version="1.0" encoding="utf-8"?>
<!-- Generator: Adobe Illustrator 23.1.1, SVG Export Plug-In . SVG Version: 6.00 Build 0)  -->
<svg version="1.1" id="Capa_1" xmlns="http://www.w3.org/2000/svg" xmlns:xlink="http://www.w3.org/1999/xlink" x="0px" y="0px"
	 viewBox="0 0 64 64" style="enable-background:new 0 0 64 64;" xml:space="preserve">
<style type="text/css">
	.st0{fill:#FFFFFF;}
	.st1{fill:#5C0002;}
</style>
<rect x="16.61" y="13.46" class="st0" width="30.09" height="31.5"/>
<g>
	<path class="st1" d="M31.66,1C17.1,1,5.31,12.9,5.31,27.6c0,8.33,4.44,15.05,9.71,20.65C18.83,52.31,31.66,64,31.66,64
		s13.87-12.67,15.11-13.93C52.59,44.19,58,36.63,58,27.67C58,12.9,46.21,1,31.66,1z M42.19,28.93V42.3h-8.11v-9.87h-4.85v9.87h-8.11
		V28.93h-3.33l13.87-14.49l4.99,5.18v-2.66h3.88v6.79l4.99,5.18C45.59,28.93,42.19,28.93,42.19,28.93z"/>
</g>
</svg>
