<svg id="Capa_1" data-name="Capa 1" xmlns="http://www.w3.org/2000/svg" viewBox="0 0 64 64"><defs><style>.cls-1{fill:#848484;}</style></defs><title>search</title><path class="cls-1" d="M32,0A32.1,32.1,0,0,0,0,31.79,31.51,31.51,0,0,0,9.25,54.47,31.6,31.6,0,0,0,31.79,64H32A32,32,0,1,0,32,0ZM48.07,48.07a2,2,0,0,1-1.49.64,1.9,1.9,0,0,1-1.42-.57l-5.84-5.69a14.46,14.46,0,0,1-8.81,3,14.72,14.72,0,0,1-10.39-25.1A14.36,14.36,0,0,1,30.51,16,14.72,14.72,0,0,1,42.24,39.54l5.83,5.62A2.1,2.1,0,0,1,48.07,48.07Z"/><path class="cls-1" d="M30.51,20.2A10.59,10.59,0,0,0,23,38.26a10.21,10.21,0,0,0,7.47,3.13A10.6,10.6,0,0,0,38,23.32,10.2,10.2,0,0,0,30.51,20.2Z"/></svg>